<mxfile host="app.diagrams.net" modified="2024-02-26T07:59:30.026Z" agent="Mozilla/5.0 (Macintosh; Intel Mac OS X 10_15_7) AppleWebKit/537.36 (KHTML, like Gecko) Chrome/122.0.0.0 Safari/537.36" etag="KtEaMfDwPf2Wx-fbsr4L" version="23.1.6" type="github">
  <diagram name="Page-1" id="KOonXXqbmE2lRdlxYzA0">
    <mxGraphModel dx="1194" dy="1824" grid="1" gridSize="10" guides="1" tooltips="1" connect="1" arrows="1" fold="1" page="1" pageScale="1" pageWidth="827" pageHeight="1169" math="0" shadow="0">
      <root>
        <mxCell id="0" />
        <mxCell id="1" parent="0" />
        <mxCell id="mfGhiSFoYJxoLjO9fj_X-10" value="" style="edgeStyle=orthogonalEdgeStyle;rounded=0;orthogonalLoop=1;jettySize=auto;html=1;" edge="1" parent="1" source="mfGhiSFoYJxoLjO9fj_X-1" target="mfGhiSFoYJxoLjO9fj_X-9">
          <mxGeometry relative="1" as="geometry" />
        </mxCell>
        <mxCell id="mfGhiSFoYJxoLjO9fj_X-1" value="&lt;h3&gt;&lt;font face=&quot;Comic Sans MS&quot;&gt;sign in&lt;br&gt;&lt;/font&gt;&lt;font face=&quot;Comic Sans MS&quot;&gt;Screen&lt;/font&gt;&lt;/h3&gt;" style="rounded=0;whiteSpace=wrap;html=1;fillColor=#f5f5f5;fontColor=#333333;strokeColor=#666666;" vertex="1" parent="1">
          <mxGeometry x="110" y="90" width="120" height="70" as="geometry" />
        </mxCell>
        <mxCell id="mfGhiSFoYJxoLjO9fj_X-13" value="" style="edgeStyle=orthogonalEdgeStyle;rounded=0;orthogonalLoop=1;jettySize=auto;html=1;" edge="1" parent="1" source="mfGhiSFoYJxoLjO9fj_X-2" target="mfGhiSFoYJxoLjO9fj_X-12">
          <mxGeometry relative="1" as="geometry" />
        </mxCell>
        <mxCell id="mfGhiSFoYJxoLjO9fj_X-2" value="&lt;h3&gt;&lt;font face=&quot;Comic Sans MS&quot;&gt;Dashboard&lt;/font&gt;&lt;/h3&gt;" style="whiteSpace=wrap;html=1;rounded=0;fillColor=#f5f5f5;fontColor=#333333;strokeColor=#666666;fontFamily=Helvetica;" vertex="1" parent="1">
          <mxGeometry x="330" y="170" width="120" height="60" as="geometry" />
        </mxCell>
        <mxCell id="mfGhiSFoYJxoLjO9fj_X-80" value="" style="edgeStyle=orthogonalEdgeStyle;rounded=0;orthogonalLoop=1;jettySize=auto;html=1;" edge="1" parent="1" source="mfGhiSFoYJxoLjO9fj_X-9" target="mfGhiSFoYJxoLjO9fj_X-79">
          <mxGeometry relative="1" as="geometry">
            <Array as="points">
              <mxPoint x="160" y="370" />
            </Array>
          </mxGeometry>
        </mxCell>
        <mxCell id="mfGhiSFoYJxoLjO9fj_X-9" value="&lt;h3&gt;&lt;font face=&quot;Comic Sans MS&quot;&gt;Sign Up&lt;br&gt;Screen&lt;/font&gt;&lt;/h3&gt;" style="whiteSpace=wrap;html=1;rounded=0;fillColor=#f5f5f5;fontColor=#333333;strokeColor=#666666;" vertex="1" parent="1">
          <mxGeometry x="110" y="250" width="120" height="60" as="geometry" />
        </mxCell>
        <mxCell id="mfGhiSFoYJxoLjO9fj_X-15" value="" style="edgeStyle=orthogonalEdgeStyle;rounded=0;orthogonalLoop=1;jettySize=auto;html=1;" edge="1" parent="1" source="mfGhiSFoYJxoLjO9fj_X-12" target="mfGhiSFoYJxoLjO9fj_X-14">
          <mxGeometry relative="1" as="geometry">
            <Array as="points">
              <mxPoint x="510" y="150" />
              <mxPoint x="510" y="290" />
            </Array>
          </mxGeometry>
        </mxCell>
        <mxCell id="mfGhiSFoYJxoLjO9fj_X-48" value="" style="edgeStyle=orthogonalEdgeStyle;rounded=0;orthogonalLoop=1;jettySize=auto;html=1;" edge="1" parent="1" source="mfGhiSFoYJxoLjO9fj_X-12" target="mfGhiSFoYJxoLjO9fj_X-47">
          <mxGeometry relative="1" as="geometry">
            <Array as="points">
              <mxPoint x="760" y="150" />
              <mxPoint x="760" y="-100" />
            </Array>
          </mxGeometry>
        </mxCell>
        <mxCell id="mfGhiSFoYJxoLjO9fj_X-51" value="" style="edgeStyle=orthogonalEdgeStyle;rounded=0;orthogonalLoop=1;jettySize=auto;html=1;" edge="1" parent="1" source="mfGhiSFoYJxoLjO9fj_X-12" target="mfGhiSFoYJxoLjO9fj_X-49">
          <mxGeometry relative="1" as="geometry">
            <Array as="points">
              <mxPoint x="760" y="150" />
              <mxPoint x="760" y="220" />
            </Array>
          </mxGeometry>
        </mxCell>
        <mxCell id="mfGhiSFoYJxoLjO9fj_X-54" value="" style="edgeStyle=orthogonalEdgeStyle;rounded=0;orthogonalLoop=1;jettySize=auto;html=1;" edge="1" parent="1" source="mfGhiSFoYJxoLjO9fj_X-12" target="mfGhiSFoYJxoLjO9fj_X-53">
          <mxGeometry relative="1" as="geometry">
            <Array as="points">
              <mxPoint x="760" y="150" />
              <mxPoint x="760" y="40" />
            </Array>
          </mxGeometry>
        </mxCell>
        <mxCell id="mfGhiSFoYJxoLjO9fj_X-78" value="" style="edgeStyle=orthogonalEdgeStyle;rounded=0;orthogonalLoop=1;jettySize=auto;html=1;" edge="1" parent="1" source="mfGhiSFoYJxoLjO9fj_X-12" target="mfGhiSFoYJxoLjO9fj_X-77">
          <mxGeometry relative="1" as="geometry">
            <Array as="points">
              <mxPoint x="760" y="150" />
              <mxPoint x="760" y="125" />
            </Array>
          </mxGeometry>
        </mxCell>
        <mxCell id="mfGhiSFoYJxoLjO9fj_X-12" value="&lt;h3&gt;Home Screen&amp;nbsp;&lt;/h3&gt;" style="whiteSpace=wrap;html=1;rounded=0;fillColor=#f5f5f5;fontColor=#333333;strokeColor=#666666;fontFamily=Helvetica;" vertex="1" parent="1">
          <mxGeometry x="570" y="120" width="120" height="60" as="geometry" />
        </mxCell>
        <mxCell id="mfGhiSFoYJxoLjO9fj_X-17" value="" style="edgeStyle=orthogonalEdgeStyle;rounded=0;orthogonalLoop=1;jettySize=auto;html=1;" edge="1" parent="1" source="mfGhiSFoYJxoLjO9fj_X-14" target="mfGhiSFoYJxoLjO9fj_X-16">
          <mxGeometry relative="1" as="geometry">
            <Array as="points">
              <mxPoint x="630" y="350" />
            </Array>
          </mxGeometry>
        </mxCell>
        <mxCell id="mfGhiSFoYJxoLjO9fj_X-33" value="" style="edgeStyle=orthogonalEdgeStyle;rounded=0;orthogonalLoop=1;jettySize=auto;html=1;" edge="1" parent="1" source="mfGhiSFoYJxoLjO9fj_X-14" target="mfGhiSFoYJxoLjO9fj_X-32">
          <mxGeometry relative="1" as="geometry">
            <Array as="points">
              <mxPoint x="630" y="420" />
            </Array>
          </mxGeometry>
        </mxCell>
        <mxCell id="mfGhiSFoYJxoLjO9fj_X-35" value="" style="edgeStyle=orthogonalEdgeStyle;rounded=0;orthogonalLoop=1;jettySize=auto;html=1;" edge="1" parent="1" source="mfGhiSFoYJxoLjO9fj_X-14" target="mfGhiSFoYJxoLjO9fj_X-34">
          <mxGeometry relative="1" as="geometry">
            <Array as="points">
              <mxPoint x="630" y="490" />
            </Array>
          </mxGeometry>
        </mxCell>
        <mxCell id="mfGhiSFoYJxoLjO9fj_X-37" value="" style="edgeStyle=orthogonalEdgeStyle;rounded=0;orthogonalLoop=1;jettySize=auto;html=1;" edge="1" parent="1" source="mfGhiSFoYJxoLjO9fj_X-14" target="mfGhiSFoYJxoLjO9fj_X-36">
          <mxGeometry relative="1" as="geometry">
            <Array as="points">
              <mxPoint x="630" y="560" />
            </Array>
          </mxGeometry>
        </mxCell>
        <mxCell id="mfGhiSFoYJxoLjO9fj_X-39" value="" style="edgeStyle=orthogonalEdgeStyle;rounded=0;orthogonalLoop=1;jettySize=auto;html=1;" edge="1" parent="1" source="mfGhiSFoYJxoLjO9fj_X-14" target="mfGhiSFoYJxoLjO9fj_X-38">
          <mxGeometry relative="1" as="geometry">
            <Array as="points">
              <mxPoint x="630" y="630" />
            </Array>
          </mxGeometry>
        </mxCell>
        <mxCell id="mfGhiSFoYJxoLjO9fj_X-41" value="" style="edgeStyle=orthogonalEdgeStyle;rounded=0;orthogonalLoop=1;jettySize=auto;html=1;" edge="1" parent="1" source="mfGhiSFoYJxoLjO9fj_X-14" target="mfGhiSFoYJxoLjO9fj_X-40">
          <mxGeometry relative="1" as="geometry">
            <Array as="points">
              <mxPoint x="630" y="700" />
            </Array>
          </mxGeometry>
        </mxCell>
        <mxCell id="mfGhiSFoYJxoLjO9fj_X-14" value="&lt;h3&gt;&lt;font face=&quot;Comic Sans MS&quot;&gt;Drawer&amp;nbsp;&lt;/font&gt;&lt;/h3&gt;" style="whiteSpace=wrap;html=1;fillColor=#f5f5f5;strokeColor=#666666;fontColor=#333333;rounded=0;" vertex="1" parent="1">
          <mxGeometry x="570" y="260" width="120" height="60" as="geometry" />
        </mxCell>
        <mxCell id="mfGhiSFoYJxoLjO9fj_X-16" value="&lt;h3&gt;&lt;font face=&quot;Comic Sans MS&quot;&gt;Profile&amp;nbsp;&lt;/font&gt;&lt;/h3&gt;" style="whiteSpace=wrap;html=1;fillColor=#f5f5f5;strokeColor=#666666;fontColor=#333333;rounded=0;" vertex="1" parent="1">
          <mxGeometry x="720" y="320" width="120" height="60" as="geometry" />
        </mxCell>
        <mxCell id="mfGhiSFoYJxoLjO9fj_X-32" value="&lt;h3&gt;&lt;font face=&quot;Comic Sans MS&quot;&gt;Your orders&lt;/font&gt;&lt;/h3&gt;" style="whiteSpace=wrap;html=1;fillColor=#f5f5f5;strokeColor=#666666;fontColor=#333333;rounded=0;" vertex="1" parent="1">
          <mxGeometry x="720" y="390" width="120" height="60" as="geometry" />
        </mxCell>
        <mxCell id="mfGhiSFoYJxoLjO9fj_X-68" value="" style="edgeStyle=orthogonalEdgeStyle;rounded=0;orthogonalLoop=1;jettySize=auto;html=1;" edge="1" parent="1" source="mfGhiSFoYJxoLjO9fj_X-34" target="mfGhiSFoYJxoLjO9fj_X-67">
          <mxGeometry relative="1" as="geometry">
            <Array as="points">
              <mxPoint x="880" y="490" />
              <mxPoint x="880" y="340" />
            </Array>
          </mxGeometry>
        </mxCell>
        <mxCell id="mfGhiSFoYJxoLjO9fj_X-70" value="" style="edgeStyle=orthogonalEdgeStyle;rounded=0;orthogonalLoop=1;jettySize=auto;html=1;" edge="1" parent="1" source="mfGhiSFoYJxoLjO9fj_X-34" target="mfGhiSFoYJxoLjO9fj_X-69">
          <mxGeometry relative="1" as="geometry">
            <Array as="points">
              <mxPoint x="880" y="490" />
              <mxPoint x="880" y="410" />
            </Array>
          </mxGeometry>
        </mxCell>
        <mxCell id="mfGhiSFoYJxoLjO9fj_X-72" value="" style="edgeStyle=orthogonalEdgeStyle;rounded=0;orthogonalLoop=1;jettySize=auto;html=1;" edge="1" parent="1" source="mfGhiSFoYJxoLjO9fj_X-34" target="mfGhiSFoYJxoLjO9fj_X-71">
          <mxGeometry relative="1" as="geometry">
            <Array as="points">
              <mxPoint x="880" y="490" />
              <mxPoint x="880" y="640" />
            </Array>
          </mxGeometry>
        </mxCell>
        <mxCell id="mfGhiSFoYJxoLjO9fj_X-74" value="" style="edgeStyle=orthogonalEdgeStyle;rounded=0;orthogonalLoop=1;jettySize=auto;html=1;" edge="1" parent="1" source="mfGhiSFoYJxoLjO9fj_X-34" target="mfGhiSFoYJxoLjO9fj_X-73">
          <mxGeometry relative="1" as="geometry">
            <Array as="points">
              <mxPoint x="880" y="490" />
              <mxPoint x="880" y="570" />
            </Array>
          </mxGeometry>
        </mxCell>
        <mxCell id="mfGhiSFoYJxoLjO9fj_X-76" value="" style="edgeStyle=orthogonalEdgeStyle;rounded=0;orthogonalLoop=1;jettySize=auto;html=1;" edge="1" parent="1" source="mfGhiSFoYJxoLjO9fj_X-34" target="mfGhiSFoYJxoLjO9fj_X-75">
          <mxGeometry relative="1" as="geometry" />
        </mxCell>
        <mxCell id="mfGhiSFoYJxoLjO9fj_X-34" value="&lt;h3&gt;&lt;font face=&quot;Comic Sans MS&quot;&gt;Account&amp;nbsp;&lt;br&gt;Settings&lt;/font&gt;&lt;/h3&gt;" style="whiteSpace=wrap;html=1;fillColor=#f5f5f5;strokeColor=#666666;fontColor=#333333;rounded=0;" vertex="1" parent="1">
          <mxGeometry x="720" y="460" width="120" height="60" as="geometry" />
        </mxCell>
        <mxCell id="mfGhiSFoYJxoLjO9fj_X-36" value="&lt;h3&gt;&lt;font face=&quot;Comic Sans MS&quot;&gt;Support&amp;nbsp;&lt;/font&gt;&lt;/h3&gt;" style="whiteSpace=wrap;html=1;fillColor=#f5f5f5;strokeColor=#666666;fontColor=#333333;rounded=0;" vertex="1" parent="1">
          <mxGeometry x="720" y="530" width="120" height="60" as="geometry" />
        </mxCell>
        <mxCell id="mfGhiSFoYJxoLjO9fj_X-38" value="&lt;h3&gt;&lt;font face=&quot;Comic Sans MS&quot;&gt;About&amp;nbsp;&lt;/font&gt;&lt;/h3&gt;" style="whiteSpace=wrap;html=1;fillColor=#f5f5f5;strokeColor=#666666;fontColor=#333333;rounded=0;" vertex="1" parent="1">
          <mxGeometry x="720" y="600" width="120" height="60" as="geometry" />
        </mxCell>
        <mxCell id="mfGhiSFoYJxoLjO9fj_X-40" value="&lt;h3&gt;&lt;font face=&quot;Comic Sans MS&quot;&gt;Sign Out&lt;/font&gt;&lt;/h3&gt;" style="whiteSpace=wrap;html=1;fillColor=#f5f5f5;strokeColor=#666666;fontColor=#333333;rounded=0;" vertex="1" parent="1">
          <mxGeometry x="720" y="670" width="120" height="60" as="geometry" />
        </mxCell>
        <mxCell id="mfGhiSFoYJxoLjO9fj_X-44" value="Authentication Requests" style="html=1;verticalAlign=bottom;startArrow=oval;startFill=1;endArrow=block;startSize=8;curved=0;rounded=0;" edge="1" parent="1">
          <mxGeometry x="0.2222" y="20" width="60" relative="1" as="geometry">
            <mxPoint x="230" y="120" as="sourcePoint" />
            <mxPoint x="330" y="200" as="targetPoint" />
            <Array as="points">
              <mxPoint x="300" y="120" />
              <mxPoint x="300" y="200" />
            </Array>
            <mxPoint as="offset" />
          </mxGeometry>
        </mxCell>
        <mxCell id="mfGhiSFoYJxoLjO9fj_X-46" value="Sign Up Requests" style="html=1;verticalAlign=bottom;startArrow=oval;startFill=1;endArrow=block;startSize=8;curved=0;rounded=0;exitX=0.45;exitY=-0.042;exitDx=0;exitDy=0;exitPerimeter=0;" edge="1" parent="1" source="mfGhiSFoYJxoLjO9fj_X-79">
          <mxGeometry x="-0.0868" y="1" width="60" relative="1" as="geometry">
            <mxPoint x="380" y="328.74" as="sourcePoint" />
            <mxPoint x="386" y="231.26" as="targetPoint" />
            <Array as="points" />
            <mxPoint as="offset" />
          </mxGeometry>
        </mxCell>
        <mxCell id="mfGhiSFoYJxoLjO9fj_X-56" value="" style="edgeStyle=orthogonalEdgeStyle;rounded=0;orthogonalLoop=1;jettySize=auto;html=1;exitX=1;exitY=0.5;exitDx=0;exitDy=0;" edge="1" parent="1" source="mfGhiSFoYJxoLjO9fj_X-47" target="mfGhiSFoYJxoLjO9fj_X-55">
          <mxGeometry relative="1" as="geometry">
            <mxPoint x="960" as="sourcePoint" />
            <Array as="points">
              <mxPoint x="940" y="-100" />
              <mxPoint x="940" y="-210" />
            </Array>
          </mxGeometry>
        </mxCell>
        <mxCell id="mfGhiSFoYJxoLjO9fj_X-63" value="" style="edgeStyle=orthogonalEdgeStyle;rounded=0;orthogonalLoop=1;jettySize=auto;html=1;" edge="1" parent="1" source="mfGhiSFoYJxoLjO9fj_X-47" target="mfGhiSFoYJxoLjO9fj_X-62">
          <mxGeometry relative="1" as="geometry" />
        </mxCell>
        <mxCell id="mfGhiSFoYJxoLjO9fj_X-64" style="edgeStyle=orthogonalEdgeStyle;rounded=0;orthogonalLoop=1;jettySize=auto;html=1;exitX=1;exitY=0.5;exitDx=0;exitDy=0;entryX=0;entryY=0.5;entryDx=0;entryDy=0;" edge="1" parent="1" source="mfGhiSFoYJxoLjO9fj_X-47" target="mfGhiSFoYJxoLjO9fj_X-58">
          <mxGeometry relative="1" as="geometry">
            <mxPoint x="940" as="targetPoint" />
            <Array as="points">
              <mxPoint x="940" y="-100" />
              <mxPoint x="940" y="-10" />
            </Array>
          </mxGeometry>
        </mxCell>
        <mxCell id="mfGhiSFoYJxoLjO9fj_X-47" value="&lt;h3&gt;&lt;font face=&quot;Comic Sans MS&quot;&gt;home&lt;/font&gt;&lt;/h3&gt;" style="whiteSpace=wrap;html=1;fillColor=#f5f5f5;strokeColor=#666666;fontColor=#333333;rounded=0;" vertex="1" parent="1">
          <mxGeometry x="780" y="-130" width="120" height="60" as="geometry" />
        </mxCell>
        <mxCell id="mfGhiSFoYJxoLjO9fj_X-49" value="&lt;h3&gt;&lt;font face=&quot;Comic Sans MS&quot;&gt;PickUp&lt;/font&gt;&lt;/h3&gt;" style="whiteSpace=wrap;html=1;fillColor=#f5f5f5;strokeColor=#666666;fontColor=#333333;rounded=0;" vertex="1" parent="1">
          <mxGeometry x="780" y="190" width="120" height="60" as="geometry" />
        </mxCell>
        <mxCell id="mfGhiSFoYJxoLjO9fj_X-53" value="&lt;h3&gt;&lt;font face=&quot;Comic Sans MS&quot;&gt;Orders&lt;/font&gt;&lt;/h3&gt;" style="whiteSpace=wrap;html=1;fillColor=#f5f5f5;strokeColor=#666666;fontColor=#333333;rounded=0;" vertex="1" parent="1">
          <mxGeometry x="780" width="120" height="60" as="geometry" />
        </mxCell>
        <mxCell id="mfGhiSFoYJxoLjO9fj_X-55" value="&lt;h3&gt;&lt;font face=&quot;Comic Sans MS&quot;&gt;Stores&amp;nbsp;&lt;/font&gt;&lt;/h3&gt;" style="whiteSpace=wrap;html=1;fillColor=#f5f5f5;strokeColor=#666666;fontColor=#333333;rounded=0;" vertex="1" parent="1">
          <mxGeometry x="990" y="-240" width="120" height="60" as="geometry" />
        </mxCell>
        <mxCell id="mfGhiSFoYJxoLjO9fj_X-58" value="&lt;h3&gt;&lt;font face=&quot;Comic Sans MS&quot;&gt;Products&amp;nbsp;&lt;/font&gt;&lt;/h3&gt;" style="whiteSpace=wrap;html=1;fillColor=#f5f5f5;strokeColor=#666666;fontColor=#333333;rounded=0;" vertex="1" parent="1">
          <mxGeometry x="990" y="-40" width="120" height="60" as="geometry" />
        </mxCell>
        <mxCell id="mfGhiSFoYJxoLjO9fj_X-60" value="Sign&amp;nbsp; Out Request&amp;nbsp;" style="html=1;verticalAlign=bottom;startArrow=oval;startFill=1;endArrow=block;startSize=8;curved=0;rounded=0;entryX=0;entryY=0.5;entryDx=0;entryDy=0;exitX=0.5;exitY=1;exitDx=0;exitDy=0;" edge="1" parent="1" source="mfGhiSFoYJxoLjO9fj_X-40" target="mfGhiSFoYJxoLjO9fj_X-1">
          <mxGeometry x="0.2234" y="-10" width="60" relative="1" as="geometry">
            <mxPoint x="700" y="760" as="sourcePoint" />
            <mxPoint x="30" y="119" as="targetPoint" />
            <Array as="points">
              <mxPoint x="780" y="760" />
              <mxPoint x="50" y="760" />
              <mxPoint x="50" y="230" />
              <mxPoint x="50" y="150" />
              <mxPoint x="50" y="125" />
            </Array>
            <mxPoint as="offset" />
          </mxGeometry>
        </mxCell>
        <mxCell id="mfGhiSFoYJxoLjO9fj_X-62" value="&lt;h3&gt;Recipes&amp;nbsp;&lt;/h3&gt;" style="whiteSpace=wrap;html=1;fillColor=#f5f5f5;strokeColor=#666666;fontColor=#333333;rounded=0;" vertex="1" parent="1">
          <mxGeometry x="990" y="-130" width="120" height="60" as="geometry" />
        </mxCell>
        <mxCell id="mfGhiSFoYJxoLjO9fj_X-67" value="&lt;h3&gt;&lt;font face=&quot;Comic Sans MS&quot;&gt;Account Info&lt;/font&gt;&lt;/h3&gt;" style="whiteSpace=wrap;html=1;fillColor=#f5f5f5;strokeColor=#666666;fontColor=#333333;rounded=0;" vertex="1" parent="1">
          <mxGeometry x="920" y="310" width="120" height="60" as="geometry" />
        </mxCell>
        <mxCell id="mfGhiSFoYJxoLjO9fj_X-69" value="&lt;h3&gt;&lt;font face=&quot;Comic Sans MS&quot;&gt;Personal Info&lt;/font&gt;&lt;/h3&gt;" style="whiteSpace=wrap;html=1;fillColor=#f5f5f5;strokeColor=#666666;fontColor=#333333;rounded=0;" vertex="1" parent="1">
          <mxGeometry x="920" y="380" width="120" height="60" as="geometry" />
        </mxCell>
        <mxCell id="mfGhiSFoYJxoLjO9fj_X-71" value="&lt;h3&gt;&lt;font face=&quot;Comic Sans MS&quot;&gt;Sign Out&amp;nbsp;&lt;/font&gt;&lt;/h3&gt;" style="whiteSpace=wrap;html=1;fillColor=#f5f5f5;strokeColor=#666666;fontColor=#333333;rounded=0;" vertex="1" parent="1">
          <mxGeometry x="920" y="610" width="120" height="60" as="geometry" />
        </mxCell>
        <mxCell id="mfGhiSFoYJxoLjO9fj_X-73" value="&lt;h3&gt;&lt;font face=&quot;Comic Sans MS&quot;&gt;Payment Methods&amp;nbsp;&lt;/font&gt;&lt;/h3&gt;" style="whiteSpace=wrap;html=1;fillColor=#f5f5f5;strokeColor=#666666;fontColor=#333333;rounded=0;" vertex="1" parent="1">
          <mxGeometry x="920" y="540" width="120" height="60" as="geometry" />
        </mxCell>
        <mxCell id="mfGhiSFoYJxoLjO9fj_X-75" value="&lt;h3&gt;&lt;font face=&quot;Comic Sans MS&quot;&gt;Address&amp;nbsp;&lt;/font&gt;&lt;/h3&gt;" style="whiteSpace=wrap;html=1;fillColor=#f5f5f5;strokeColor=#666666;fontColor=#333333;rounded=0;" vertex="1" parent="1">
          <mxGeometry x="920" y="460" width="120" height="60" as="geometry" />
        </mxCell>
        <mxCell id="mfGhiSFoYJxoLjO9fj_X-77" value="&lt;h3&gt;&lt;font face=&quot;Comic Sans MS&quot;&gt;Category&amp;nbsp;&lt;/font&gt;&lt;/h3&gt;" style="whiteSpace=wrap;html=1;fillColor=#f5f5f5;strokeColor=#666666;fontColor=#333333;rounded=0;" vertex="1" parent="1">
          <mxGeometry x="780" y="95" width="120" height="60" as="geometry" />
        </mxCell>
        <mxCell id="mfGhiSFoYJxoLjO9fj_X-79" value="&lt;h3&gt;&lt;font face=&quot;Comic Sans MS&quot;&gt;Validate User&lt;/font&gt;&lt;/h3&gt;" style="whiteSpace=wrap;html=1;rounded=0;fillColor=#f5f5f5;fontColor=#333333;strokeColor=#666666;" vertex="1" parent="1">
          <mxGeometry x="330" y="340" width="120" height="60" as="geometry" />
        </mxCell>
      </root>
    </mxGraphModel>
  </diagram>
</mxfile>
